<?xml version="1.0" encoding="UTF-8"?>
<svg width="37px" height="37px" viewBox="0 0 37 37" version="1.1" xmlns="http://www.w3.org/2000/svg" xmlns:xlink="http://www.w3.org/1999/xlink">
    <!-- Generator: Sketch 60.1 (88133) - https://sketch.com -->
    <title>iconfinder_rss_246005</title>
    <desc>Created with Sketch.</desc>
    <g id="Page-1" stroke="none" stroke-width="1" fill="none" fill-rule="evenodd">
        <g id="iconfinder_rss_246005" fill="#FA9619" fill-rule="nonzero">
            <path d="M5.2906221,26.4153571 C2.37047354,26.4153571 1.77635684e-15,28.7833571 1.77635684e-15,31.7063571 C1.77635684e-15,34.6293571 2.36783087,36.9973571 5.2906221,36.9973571 C8.21341333,36.9973571 10.5812442,34.6293571 10.5812442,31.7063571 C10.5812442,28.7833571 8.21341333,26.4153571 5.2906221,26.4153571 Z M3.72880509,13.2169286 C1.67545175,13.2169286 0.0132133419,14.8792857 0.0132133419,16.9327857 C0.0132133419,18.9836429 1.67545175,20.6486429 3.72880509,20.6486429 C10.6948789,20.6486429 16.3634026,26.3175714 16.3634026,33.2841429 C16.3634026,35.335 18.025641,37 20.081637,37 C22.129705,37 23.7972288,35.335 23.7972288,33.2841429 C23.7972288,22.2185 14.7936576,13.2169286 3.72880509,13.2169286 Z M3.80015713,0 C1.70187844,0 0,1.702 0,3.80042857 C0,5.89885714 1.70187844,7.60085714 3.80015713,7.60085714 C17.914649,7.60085714 29.3996857,19.0840714 29.3996857,33.1995714 C29.3996857,35.298 31.0989215,37 33.1998429,37 C35.3007642,37 37,35.2953571 37,33.1995714 C36.9973573,14.8925 22.1032783,0 3.80015713,0 L3.80015713,0 Z" id="Shape"></path>
        </g>
    </g>
</svg>