<svg width="31" height="30" viewBox="0 0 31 30" fill="none" xmlns="http://www.w3.org/2000/svg">
<path d="M28.9408 7.62347C27.5721 5.27824 25.7154 3.42151 23.3704 2.05288C21.025 0.684177 18.4646 0 15.6872 0C12.9103 0 10.349 0.684386 8.00408 2.05288C5.65885 3.42144 3.80227 5.27824 2.4335 7.62347C1.06493 9.96863 0.380615 12.5296 0.380615 15.3062C0.380615 18.6416 1.35372 21.6408 3.30043 24.3047C5.24692 26.9688 7.76151 28.8123 10.844 29.8353C11.2028 29.9019 11.4684 29.8551 11.6411 29.696C11.8139 29.5367 11.9001 29.3372 11.9001 29.0983C11.9001 29.0584 11.8967 28.6998 11.8901 28.0221C11.8833 27.3443 11.88 26.7531 11.88 26.2486L11.4216 26.3279C11.1293 26.3814 10.7606 26.4041 10.3155 26.3977C9.87051 26.3915 9.4086 26.3448 8.93035 26.2581C8.45189 26.1722 8.00688 25.9729 7.59495 25.6607C7.18323 25.3484 6.89094 24.9397 6.71817 24.4351L6.51887 23.9765C6.38603 23.6712 6.17689 23.332 5.89117 22.9602C5.60545 22.588 5.31652 22.3358 5.02424 22.2029L4.88469 22.103C4.79171 22.0366 4.70543 21.9566 4.62564 21.8637C4.54592 21.7707 4.48624 21.6778 4.44638 21.5846C4.40645 21.4914 4.43954 21.415 4.54599 21.355C4.65245 21.2951 4.84483 21.266 5.12399 21.266L5.52245 21.3255C5.7882 21.3788 6.11693 21.5379 6.50903 21.8038C6.90093 22.0694 7.22308 22.4148 7.47558 22.8398C7.78133 23.3847 8.1497 23.8 8.58174 24.0857C9.01342 24.3714 9.44867 24.514 9.88706 24.514C10.3254 24.514 10.7041 24.4808 11.0231 24.4147C11.3418 24.3482 11.6407 24.2483 11.9199 24.1156C12.0395 23.225 12.3651 22.5408 12.8964 22.0625C12.1391 21.983 11.4583 21.8631 10.8535 21.7037C10.2491 21.5441 9.62458 21.2852 8.98026 20.9261C8.3356 20.5675 7.80081 20.1222 7.37575 19.591C6.95063 19.0594 6.60173 18.3617 6.32956 17.4982C6.05724 16.6344 5.92105 15.638 5.92105 14.5087C5.92105 12.9007 6.446 11.5323 7.49568 10.4028C7.00396 9.19391 7.05038 7.83868 7.63509 6.33728C8.02042 6.21756 8.59186 6.3074 9.34912 6.60624C10.1065 6.90523 10.6611 7.16135 11.0133 7.3737C11.3656 7.58598 11.6478 7.76588 11.8604 7.91177C13.0964 7.56644 14.3718 7.39373 15.6871 7.39373C17.0024 7.39373 18.2781 7.56644 19.5141 7.91177L20.2715 7.43366C20.7894 7.11465 21.4009 6.8223 22.1047 6.55654C22.8089 6.29093 23.3474 6.21777 23.7196 6.33749C24.3173 7.83896 24.3706 9.19412 23.8787 10.403C24.9283 11.5325 25.4535 12.9012 25.4535 14.5089C25.4535 15.6382 25.3168 16.6378 25.0449 17.5082C24.7727 18.3788 24.4208 19.0758 23.9891 19.6009C23.5569 20.126 23.0187 20.5678 22.3744 20.9263C21.7299 21.2851 21.1052 21.5441 20.5008 21.7037C19.8961 21.8632 19.2153 21.9832 18.458 22.0629C19.1487 22.6606 19.4941 23.604 19.4941 24.8928V29.0977C19.4941 29.3366 19.5772 29.5361 19.7434 29.6954C19.9095 29.8545 20.1718 29.9014 20.5306 29.8347C23.6135 28.8118 26.128 26.9683 28.0745 24.3042C30.0207 21.6403 30.9941 18.641 30.9941 15.3056C30.9934 12.5294 30.3088 9.96863 28.9408 7.62347Z" fill="#24292F"/>
</svg>
