<?xml version="1.0" encoding="UTF-8"?>
<svg width="438px" height="824px" viewBox="0 0 438 824" version="1.1" xmlns="http://www.w3.org/2000/svg" xmlns:xlink="http://www.w3.org/1999/xlink">
    <!-- Generator: Sketch 57.1 (83088) - https://sketch.com -->
    <title>Fill 4</title>
    <desc>Created with Sketch.</desc>
    <g id="Page-1" stroke="none" stroke-width="1" fill="none" fill-rule="evenodd">
        <g id="f_logo_RGB-Blue_1024" transform="translate(-302.000000, -200.000000)" fill="#1877F2">
            <path d="M711.3,660 L734,512 L592,512 L592,415.957 C592,375.467 611.835,336 675.438,336 L740,336 L740,210 C740,210 681.407,200 625.39,200 C508.438,200 432,270.88 432,399.2 L432,512 L302,512 L302,660 L432,660 L432,1017.78 C458.067,1021.87 484.784,1024 512,1024 C539.216,1024 565.933,1021.87 592,1017.78 L592,660 L711.3,660" id="Fill-4"></path>
        </g>
    </g>
</svg>