<svg width="14" height="17" viewBox="0 0 14 17" fill="none" xmlns="http://www.w3.org/2000/svg">
<path d="M7.00001 16.3333C7.91668 16.3333 8.66668 15.5833 8.66668 14.6667H5.33334C5.33334 15.5833 6.08334 16.3333 7.00001 16.3333ZM12 11.3333V7.16666C12 4.60833 10.6417 2.46666 8.25001 1.89999V1.33333C8.25001 0.641662 7.69168 0.0833282 7.00001 0.0833282C6.30834 0.0833282 5.75001 0.641662 5.75001 1.33333V1.89999C3.36668 2.46666 2.00001 4.59999 2.00001 7.16666V11.3333L0.333344 13V13.8333H13.6667V13L12 11.3333ZM10.3333 12.1667H3.66668V7.16666C3.66668 5.09999 4.92501 3.41666 7.00001 3.41666C9.07501 3.41666 10.3333 5.09999 10.3333 7.16666V12.1667Z" fill="#21213B"/>
</svg>
