<?xml version="1.0" encoding="UTF-8"?>
<svg width="422px" height="80px" viewBox="0 0 422 80" version="1.1" xmlns="http://www.w3.org/2000/svg" xmlns:xlink="http://www.w3.org/1999/xlink">
    <!-- Generator: Sketch 60.1 (88133) - https://sketch.com -->
    <title>Group 2</title>
    <desc>Created with Sketch.</desc>
    <g id="Logo" stroke="none" stroke-width="1" fill="none" fill-rule="evenodd">
        <g id="Artboard" transform="translate(-70.000000, -80.000000)" fill="#2B2C30">
            <g id="Group-2" transform="translate(70.000000, 80.000000)">
                <g id="Group">
                    <path d="M70,5.68434189e-14 C75.5228475,5.68434189e-14 80,4.4771525 80,10 L80,70 C80,75.5228475 75.5228475,80 70,80 L10,80 C4.4771525,80 -7.10542736e-14,75.5228475 -7.10542736e-14,70 L-7.10542736e-14,10 L-7.10542736e-14,10 C-7.10542736e-14,5 5,5.68434189e-14 10,5.68434189e-14 L70,5.68434189e-14 L70,5.68434189e-14 Z M64.7487373,36.4644661 C62.7961159,34.5118446 59.630291,34.5118446 57.6776695,36.4644661 L57.6776695,36.4644661 L38.5857864,55.5563492 L35.7573593,52.7279221 L30.1005051,58.3847763 L35.0502525,63.3345238 C37.002874,65.2871452 40.1686989,65.2871452 42.1213203,63.3345238 L42.1213203,63.3345238 L61.2132034,44.2426407 L64.0416306,47.0710678 L69.6984848,41.4142136 Z M53.4350288,25.1507576 C51.4824074,23.1981361 48.3165825,23.1981361 46.363961,25.1507576 L46.363961,25.1507576 L21.6152237,49.8994949 L27.2720779,55.5563492 L49.8994949,32.9289322 L52.7279221,35.7573593 L58.3847763,30.1005051 Z M42.1213203,13.8370491 C40.1686989,11.8844276 37.002874,11.8844276 35.0502525,13.8370491 L35.0502525,13.8370491 L13.8370491,35.0502525 C11.8844276,37.002874 11.8844276,40.1686989 13.8370491,42.1213203 L13.8370491,42.1213203 L18.7867966,47.0710678 L24.4436508,41.4142136 L21.6152237,38.5857864 L38.5857864,21.6152237 L41.4142136,24.4436508 L47.0710678,18.7867966 Z" id="Combined-Shape"></path>
                </g>
                <path d="M109,31.5344828 L119.843318,31.5344828 L119.843318,35.2758621 C122.798786,32.4648646 126.113653,31.059387 129.788018,31.059387 C134.341037,31.059387 137.815656,32.9597511 140.211982,36.7605364 C142.648246,32.9201596 146.122865,31 150.635945,31 C152.07374,31 153.431637,31.2078523 154.709677,31.6235632 C155.987718,32.0392741 157.086017,32.6925243 158.004608,33.5833333 C158.9232,34.4741424 159.652071,35.6321768 160.191244,37.0574713 C160.730417,38.4827657 161,40.2049707 161,42.2241379 L161,62 L150.156682,62 L150.156682,46.9750958 C150.156682,45.4310268 150.046852,44.1641173 149.827189,43.1743295 C149.607526,42.1845417 149.288021,41.4125187 148.868664,40.8582375 C148.449307,40.3039564 147.960064,39.9278426 147.400922,39.7298851 C146.841779,39.5319275 146.242707,39.4329502 145.603687,39.4329502 C142.129015,39.4329502 140.391705,41.9469736 140.391705,46.9750958 L140.391705,62 L129.548387,62 L129.548387,46.9750958 C129.548387,45.4310268 129.448542,44.1542196 129.248848,43.144636 C129.049154,42.1350524 128.759603,41.3333363 128.380184,40.7394636 C128.000766,40.1455909 127.511524,39.739784 126.912442,39.5220307 C126.313361,39.3042773 125.614443,39.1954023 124.815668,39.1954023 C124.136709,39.1954023 123.497699,39.2943796 122.898618,39.4923372 C122.299536,39.6902947 121.770356,40.0763062 121.31106,40.6503831 C120.851764,41.2244601 120.492321,42.0162785 120.232719,43.0258621 C119.973117,44.0354457 119.843318,45.3518437 119.843318,46.9750958 L119.843318,62 L109,62 L109,31.5344828 Z M180,32 L180,63 L169,63 L169,32 L180,32 Z M211,42.0201835 C209.075338,40.7284339 207.130231,40.0825688 205.164619,40.0825688 C204.099913,40.0825688 203.106884,40.2642184 202.185504,40.6275229 C201.264123,40.9908275 200.455368,41.5055013 199.759214,42.1715596 C199.06306,42.837618 198.520477,43.6247661 198.13145,44.5330275 C197.742422,45.4412889 197.547912,46.4605448 197.547912,47.5908257 C197.547912,48.6807394 197.742422,49.679812 198.13145,50.5880734 C198.520477,51.4963348 199.052822,52.2834829 199.728501,52.9495413 C200.40418,53.6155997 201.212936,54.1302734 202.154791,54.493578 C203.096647,54.8568826 204.099913,55.0385321 205.164619,55.0385321 C207.253082,55.0385321 209.198189,54.3321172 211,52.9192661 L211,62.2440367 C208.256334,63.4146848 205.656032,64 203.199017,64 C200.905803,64 198.725236,63.6165176 196.657248,62.8495413 C194.589261,62.082565 192.767002,60.982576 191.190418,59.5495413 C189.613833,58.1165066 188.354632,56.4009274 187.412776,54.4027523 C186.470921,52.4045772 186,50.1743242 186,47.7119266 C186,45.249529 186.450446,42.9990928 187.351351,40.9605505 C188.252257,38.9220082 189.480746,37.1660624 191.036855,35.6926606 C192.592964,34.2192587 194.445935,33.0688115 196.595823,32.2412844 C198.745711,31.4137573 201.049128,31 203.506143,31 C206.208859,31 208.706786,31.565132 211,32.6954128 L211,42.0201835 Z M240.835065,31 C241.173595,31 241.561903,31.0407121 242,31.1221374 L242,41.6870229 C240.566227,40.9541948 239.012995,40.5877863 237.34026,40.5877863 C234.831156,40.5877863 232.949357,41.3511374 231.694805,42.8778626 C230.440253,44.4045878 229.812987,46.6335731 229.812987,49.5648855 L229.812987,63 L219,63 L219,31.6717557 L229.812987,31.6717557 L229.812987,36.8015267 C230.967971,34.9287438 232.38181,33.4936437 234.054545,32.4961832 C235.727281,31.4987227 237.678777,31 239.909091,31 L240.835065,31 Z M175,16 C178.313708,16 181,18.6862915 181,22 C181,25.3137085 178.313708,28 175,28 C171.686292,28 169,25.3137085 169,22 C169,18.6862915 171.686292,16 175,16 Z M257,46.9106383 C257,47.9432676 257.189457,48.8865206 257.568376,49.7404255 C257.947295,50.5943305 258.445866,51.3390039 259.064103,51.9744681 C259.682339,52.6099323 260.420224,53.1063812 261.277778,53.4638298 C262.135332,53.8212784 263.04273,54 264,54 C264.95727,54 265.864668,53.8212784 266.722222,53.4638298 C267.579776,53.1063812 268.317661,52.6099323 268.935897,51.9744681 C269.554134,51.3390039 270.052705,50.5943305 270.431624,49.7404255 C270.810543,48.8865206 271,47.9631255 271,46.9702128 C271,46.0170165 270.810543,45.1134794 270.431624,44.2595745 C270.052705,43.4056695 269.554134,42.6609961 268.935897,42.0255319 C268.317661,41.3900677 267.579776,40.8936188 266.722222,40.5361702 C265.864668,40.1787216 264.95727,40 264,40 C263.04273,40 262.135332,40.1787216 261.277778,40.5361702 C260.420224,40.8936188 259.682339,41.3900677 259.064103,42.0255319 C258.445866,42.6609961 257.947295,43.3957405 257.568376,44.2297872 C257.189457,45.063834 257,45.957442 257,46.9106383 Z M245,47.23049 C245,44.9546166 245.460493,42.8285035 246.381494,40.8520871 C247.302494,38.8756707 248.583866,37.1588095 250.225649,35.7014519 C251.867432,34.2440943 253.819523,33.0961929 256.081981,32.2577132 C258.344438,31.4192336 260.817086,31 263.5,31 C266.14287,31 268.595497,31.4092518 270.857955,32.2277677 C273.120412,33.0462836 275.082513,34.1842032 276.744318,35.6415608 C278.406123,37.0989184 279.697506,38.8357431 280.618506,40.8520871 C281.539507,42.8684311 282,45.0943617 282,47.5299456 C282,49.9655294 281.529496,52.19146 280.588474,54.207804 C279.647452,56.224148 278.356069,57.9609727 276.714286,59.4183303 C275.072503,60.8756879 273.10039,62.0036258 270.79789,62.8021779 C268.495389,63.6007299 266.002719,64 263.319805,64 C260.676935,64 258.234319,63.6007299 255.991883,62.8021779 C253.749448,62.0036258 251.817378,60.8657061 250.195617,59.3883848 C248.573856,57.9110634 247.302494,56.1442934 246.381494,54.0880218 C245.460493,52.0317502 245,49.7459291 245,47.23049 Z M323,32.4623116 C320.250131,29.1256115 316.853284,27.4572864 312.809359,27.4572864 C311.030032,27.4572864 309.382157,27.7788913 307.865685,28.4221106 C306.349213,29.0653298 305.045066,29.939693 303.953206,31.0452261 C302.861346,32.1507593 302.002025,33.467329 301.375217,34.9949749 C300.748408,36.5226207 300.435009,38.1708454 300.435009,39.9396985 C300.435009,41.7487528 300.748408,43.4170778 301.375217,44.9447236 C302.002025,46.4723694 302.871456,47.7989893 303.983536,48.9246231 C305.095615,50.0502569 306.399761,50.9346702 307.896014,51.5778894 C309.392266,52.2211087 311.009812,52.5427136 312.7487,52.5427136 C316.54999,52.5427136 319.967056,50.9346894 323,47.718593 L323,61.7085427 L321.786828,62.1306533 C319.967062,62.7738726 318.268639,63.2462296 316.691508,63.5477387 C315.114377,63.8492477 313.557489,64 312.020797,64 C308.866535,64 305.843746,63.4070411 302.95234,62.2211055 C300.060933,61.0351699 297.513298,59.3668449 295.309359,57.2160804 C293.105419,55.0653159 291.336229,52.5125776 290.001733,49.5577889 C288.667238,46.6030003 288,43.3769019 288,39.879397 C288,36.3818921 288.657128,33.175894 289.971404,30.2613065 C291.28568,27.3467191 293.044761,24.8341814 295.2487,22.7236181 C297.45264,20.6130548 300.010384,18.9648301 302.92201,17.7788945 C305.833637,16.5929589 308.886755,16 312.081456,16 C313.901222,16 315.690632,16.1909529 317.44974,16.5728643 C319.208848,16.9547758 321.058916,17.5477347 323,18.3517588 L323,32.4623116 Z M328,63 L335.720635,18 L347.422222,18 L356.530159,41.9920424 L365.577778,18 L377.279365,18 L385,63 L373.238095,63 L369.31746,37.0981432 L358.580952,63 L353.87619,63 L343.68254,37.0981432 L339.761905,63 L328,63 Z M415.346499,28.9045226 C414.044278,27.8592913 412.742077,27.0854296 411.439856,26.5829146 C410.137636,26.0803995 408.876128,25.8291457 407.655296,25.8291457 C406.108909,25.8291457 404.847402,26.1909512 403.870736,26.9145729 C402.894071,27.6381946 402.405745,28.5829087 402.405745,29.7487437 C402.405745,30.5527678 402.649908,31.2160778 403.138241,31.7386935 C403.626573,32.2613091 404.267501,32.7135659 405.061041,33.0954774 C405.854582,33.4773888 406.749845,33.8090438 407.746858,34.0904523 C408.743871,34.3718607 409.730695,34.6733652 410.707361,34.9949749 C414.614023,36.2814135 417.472762,37.9999892 419.283662,40.1507538 C421.094563,42.3015183 422,45.1055104 422,48.5628141 C422,50.894484 421.603236,53.0050157 420.809695,54.8944724 C420.016154,56.783929 418.856381,58.4020033 417.330341,59.7487437 C415.804301,61.0954841 413.932387,62.1406998 411.714542,62.8844221 C409.496697,63.6281444 406.983856,64 404.175943,64 C398.356644,64 392.964717,62.2914744 388,58.8743719 L393.127469,49.3467337 C394.918022,50.9145807 396.688202,52.0803982 398.438061,52.8442211 C400.18792,53.608044 401.917406,53.9899497 403.626571,53.9899497 C405.579902,53.9899497 407.034705,53.5477431 407.991023,52.6633166 C408.947342,51.7788901 409.425494,50.773875 409.425494,49.6482412 C409.425494,48.9648207 409.303412,48.3718618 409.059246,47.8693467 C408.81508,47.3668317 408.408142,46.9045247 407.83842,46.4824121 C407.268699,46.0602994 406.526037,45.6683435 405.610413,45.3065327 C404.694789,44.9447218 403.585883,44.5427158 402.283662,44.1005025 C400.737275,43.618088 399.221432,43.0854301 397.736086,42.5025126 C396.250741,41.9195951 394.928193,41.1457335 393.768402,40.1809045 C392.608612,39.2160756 391.672655,38 390.960503,36.5326633 C390.248351,35.0653193 389.89228,33.2060414 389.89228,30.9547739 C389.89228,28.7035063 390.268698,26.6633257 391.021544,24.8341709 C391.77439,23.005016 392.832429,21.4371925 394.195691,20.1306533 C395.558954,18.8241141 397.227399,17.8090488 399.201077,17.0854271 C401.174756,16.3618054 403.382394,16 405.824057,16 C408.102944,16 410.48353,16.3115547 412.965889,16.9346734 C415.448247,17.5577921 417.828834,18.4723558 420.10772,19.678392 L415.346499,28.9045226 Z" id="microCMS" fill-rule="nonzero"></path>
            </g>
        </g>
    </g>
</svg>