<?xml version="1.0" encoding="UTF-8"?>
<svg width="248px" height="138px" viewBox="0 0 248 138" version="1.1" xmlns="http://www.w3.org/2000/svg" xmlns:xlink="http://www.w3.org/1999/xlink">
    <!-- Generator: Sketch 57.1 (83088) - https://sketch.com -->
    <title>Group 2</title>
    <desc>Created with Sketch.</desc>
    <g id="Logo" stroke="none" stroke-width="1" fill="none" fill-rule="evenodd">
        <g id="Artboard" transform="translate(-176.000000, -41.000000)">
            <g id="Group-2" transform="translate(176.000000, 41.000000)">
                <g id="Group" transform="translate(84.000000, 0.000000)">
                    <rect id="Rectangle" fill="#FFFFFF" x="0" y="0" width="80" height="80" rx="10"></rect>
                    <path d="M46,20 L46,28 L42,28 L42,60 L34,60 L34,25 C34,22.2385763 36.2385763,20 39,20 L46,20 Z M30,20 L30,28 L26,28 L26,52 L30,52 L30,60 L23,60 C20.2385763,60 18,57.7614237 18,55 L18,25 C18,22.2385763 20.2385763,20 23,20 L30,20 Z M58,55 C58,57.7614237 55.7614237,60 53,60 L50,60 L46,60 L46,52 L50,52 L50,25 C50,22.2385763 52.2385763,20 55,20 L58,20 L62,20 L62,28 L58,28 L58,55 Z" id="Combined-Shape" fill="#2B2C30" transform="translate(40.000000, 40.000000) rotate(45.000000) translate(-40.000000, -40.000000) "></path>
                </g>
                <path d="M0,112.507538 L8.70372285,112.507538 L8.70372285,115.515075 C11.0760201,113.255433 13.7368001,112.125628 16.6861427,112.125628 C20.3407628,112.125628 23.1297732,113.653251 25.0532575,116.708543 C27.0087999,113.621425 29.7978102,112.077889 33.4203723,112.077889 C34.5744629,112.077889 35.6644209,112.244973 36.6902792,112.579146 C37.7161375,112.913318 38.5977212,113.438439 39.3350569,114.154523 C40.0723925,114.870607 40.6574435,115.801502 41.0902275,116.947236 C41.5230115,118.092971 41.7394002,119.477379 41.7394002,121.100503 L41.7394002,136.997487 L33.0356774,136.997487 L33.0356774,124.919598 C33.0356774,123.678386 32.947519,122.65997 32.7711996,121.864322 C32.5948802,121.068673 32.3384195,120.448076 32.0018097,120.002513 C31.6652,119.556949 31.2724945,119.254607 30.8236815,119.095477 C30.3748685,118.936348 29.8940046,118.856784 29.3810755,118.856784 C26.5920233,118.856784 25.1975181,120.877702 25.1975181,124.919598 L25.1975181,136.997487 L16.4937952,136.997487 L16.4937952,124.919598 C16.4937952,123.678386 16.4136513,122.652014 16.2533609,121.840452 C16.0930706,121.02889 15.860653,120.384424 15.5561013,119.907035 C15.2515497,119.429646 14.8588442,119.103435 14.3779731,118.928392 C13.897102,118.753349 13.3360942,118.665829 12.6949328,118.665829 C12.1499456,118.665829 11.6370241,118.745393 11.1561531,118.904523 C10.675282,119.063652 10.2505189,119.373951 9.88185109,119.835427 C9.51318327,120.296903 9.22466495,120.933413 9.01628749,121.744975 C8.80791002,122.556537 8.70372285,123.614734 8.70372285,124.919598 L8.70372285,136.997487 L0,136.997487 L0,112.507538 Z M56.4058945,112.507538 L56.4058945,136.997487 L47.7021717,136.997487 L47.7021717,112.507538 L56.4058945,112.507538 Z M80.9782834,120.432161 C79.471554,119.41373 77.9488184,118.904523 76.410031,118.904523 C75.5765212,118.904523 74.7991246,119.047737 74.077818,119.334171 C73.3565114,119.620604 72.723374,120.026379 72.1783868,120.551508 C71.6333996,121.076636 71.2086365,121.697233 70.9040848,122.413317 C70.5995331,123.129401 70.4472596,123.932994 70.4472596,124.824121 C70.4472596,125.683421 70.5995331,126.471102 70.9040848,127.187186 C71.2086365,127.90327 71.6253852,128.523867 72.1543433,129.048995 C72.6833015,129.574123 73.3164389,129.979898 74.0537746,130.266332 C74.7911102,130.552765 75.5765212,130.69598 76.410031,130.69598 C78.0449927,130.69598 79.5677282,130.139034 80.9782834,129.025126 L80.9782834,136.376884 C78.8303926,137.299837 76.7947356,137.761307 74.8712513,137.761307 C73.0759993,137.761307 71.3689326,137.458964 69.75,136.854271 C68.1310674,136.249578 66.7045046,135.382334 65.4702689,134.252513 C64.2360331,133.122691 63.2502622,131.770108 62.5129266,130.194724 C61.7755909,128.619339 61.4069286,126.860981 61.4069286,124.919598 C61.4069286,122.978215 61.7595621,121.203944 62.4648397,119.596734 C63.1701173,117.989523 64.131845,116.605115 65.3500517,115.443467 C66.5682584,114.28182 68.0188644,113.374794 69.7019131,112.722362 C71.3849619,112.06993 73.1882013,111.743719 75.1116856,111.743719 C77.2275183,111.743719 79.1830314,112.189275 80.9782834,113.080402 L80.9782834,120.432161 Z M104.50879,111.982412 C104.781284,111.982412 105.093845,112.014238 105.446484,112.077889 L105.446484,120.336683 C104.292393,119.763816 103.042147,119.477387 101.695708,119.477387 C99.6760499,119.477387 98.1613287,120.074115 97.1514995,121.267588 C96.1416702,122.461061 95.6367632,124.203506 95.6367632,126.494975 L95.6367632,136.997487 L86.9330403,136.997487 L86.9330403,112.507538 L95.6367632,112.507538 L95.6367632,116.517588 C96.5664473,115.053594 97.7044917,113.931746 99.0509307,113.15201 C100.39737,112.372274 101.968192,111.982412 103.763444,111.982412 L104.50879,111.982412 Z M52.0941055,100.222781 C54.8605266,100.222781 57.1031541,102.44917 57.1031541,105.195561 C57.1031541,107.941952 54.8605266,110.168342 52.0941055,110.168342 C49.3276843,110.168342 47.0850569,107.941952 47.0850569,105.195561 C47.0850569,102.44917 49.3276843,100.222781 52.0941055,100.222781 Z M116.754912,124.633166 C116.754912,125.460641 116.907186,126.216496 117.211737,126.900754 C117.516289,127.585012 117.917009,128.181739 118.413909,128.690955 C118.910809,129.20017 119.503875,129.597989 120.193123,129.884422 C120.882372,130.170856 121.611682,130.31407 122.381075,130.31407 C123.150469,130.31407 123.879779,130.170856 124.569028,129.884422 C125.258276,129.597989 125.851342,129.20017 126.348242,128.690955 C126.845142,128.181739 127.245862,127.585012 127.550414,126.900754 C127.854965,126.216496 128.007239,125.476553 128.007239,124.680905 C128.007239,123.917082 127.854965,123.193052 127.550414,122.508794 C127.245862,121.824536 126.845142,121.227808 126.348242,120.718593 C125.851342,120.209378 125.258276,119.811559 124.569028,119.525126 C123.879779,119.238692 123.150469,119.095477 122.381075,119.095477 C121.611682,119.095477 120.882372,119.238692 120.193123,119.525126 C119.503875,119.811559 118.910809,120.209378 118.413909,120.718593 C117.917009,121.227808 117.516289,121.81658 117.211737,122.484925 C116.907186,123.15327 116.754912,123.869343 116.754912,124.633166 Z M107.570321,124.537688 C107.570321,122.723609 107.938983,121.028902 108.676319,119.453518 C109.413654,117.878133 110.439497,116.509637 111.753878,115.34799 C113.068259,114.186343 114.631066,113.27136 116.442347,112.603015 C118.253628,111.93467 120.233185,111.600503 122.381075,111.600503 C124.496908,111.600503 126.460436,111.926714 128.271717,112.579146 C130.082998,113.231578 131.65382,114.138604 132.98423,115.300251 C134.31464,116.461899 135.348497,117.846307 136.085832,119.453518 C136.823168,121.060728 137.19183,122.834999 137.19183,124.776382 C137.19183,126.717765 136.815154,128.492036 136.061789,130.099246 C135.308424,131.706457 134.274567,133.090865 132.960186,134.252513 C131.645805,135.41416 130.066969,136.31323 128.22363,136.949749 C126.380291,137.586268 124.384706,137.904523 122.236815,137.904523 C120.120982,137.904523 118.165469,137.586268 116.370217,136.949749 C114.574965,136.31323 113.028186,135.406204 111.729835,134.228643 C110.431483,133.051083 109.413654,131.642806 108.676319,130.003769 C107.938983,128.364732 107.570321,126.542724 107.570321,124.537688 Z M169.12151,113.032663 C166.941561,110.391109 164.248723,109.070352 161.042916,109.070352 C159.632361,109.070352 158.326014,109.324956 157.123837,109.834171 C155.921659,110.343386 154.887802,111.03559 154.022234,111.910804 C153.156666,112.786018 152.475442,113.828302 151.978542,115.037688 C151.481642,116.247075 151.233195,117.551919 151.233195,118.952261 C151.233195,120.384429 151.481642,121.705187 151.978542,122.914573 C152.475442,124.123959 153.16468,125.1742 154.046277,126.065327 C154.927874,126.956453 155.961731,127.656614 157.14788,128.165829 C158.334029,128.675044 159.616332,128.929648 160.994829,128.929648 C164.008288,128.929648 166.717154,127.656629 169.12151,125.110553 L169.12151,136.18593 L168.159772,136.520101 C166.717159,137.029316 165.37074,137.403265 164.120476,137.64196 C162.870211,137.880654 161.635994,138 160.417787,138 C157.917257,138 155.520953,137.530574 153.2288,136.591709 C150.936648,135.652843 148.91702,134.332086 147.169855,132.629397 C145.42269,130.926708 144.020171,128.905791 142.962254,126.566583 C141.904338,124.227375 141.375388,121.673381 141.375388,118.904523 C141.375388,116.135665 141.896324,113.597583 142.938211,111.290201 C143.980098,108.982819 145.374603,106.993727 147.121768,105.322864 C148.868933,103.652002 150.896576,102.347157 153.204757,101.408291 C155.512938,100.469426 157.933286,100 160.465874,100 C161.908487,100 163.327035,100.151171 164.721562,100.453518 C166.116088,100.755864 167.582722,101.22529 169.12151,101.861809 L169.12151,113.032663 Z M173.449328,136.997487 L179.604447,101.002513 L188.933299,101.002513 L196.194416,120.193467 L203.407446,101.002513 L212.736298,101.002513 L218.891417,136.997487 L209.514478,136.997487 L206.388831,116.278894 L197.829369,136.997487 L194.078594,136.997487 L185.951913,116.278894 L182.826267,136.997487 L173.449328,136.997487 Z M242.758532,110.21608 C241.732673,109.388606 240.70683,108.775965 239.680972,108.378141 C238.655114,107.980316 237.661328,107.781407 236.699586,107.781407 C235.48138,107.781407 234.487594,108.067836 233.718201,108.640704 C232.948807,109.213571 232.564116,109.961469 232.564116,110.884422 C232.564116,111.520941 232.756461,112.046062 233.141158,112.459799 C233.525855,112.873536 234.030762,113.231573 234.655895,113.53392 C235.281027,113.836266 235.986294,114.098826 236.771717,114.321608 C237.557139,114.54439 238.334536,114.783081 239.10393,115.037688 C242.181505,116.056119 244.43355,117.416658 245.860134,119.119347 C247.286719,120.822035 248,123.041862 248,125.778894 C248,127.6248 247.687438,129.295637 247.062306,130.791457 C246.437174,132.287277 245.523532,133.568253 244.321355,134.634422 C243.119177,135.700592 241.644528,136.528054 239.897363,137.116834 C238.150198,137.705614 236.170642,138 233.958635,138 C229.374331,138 225.1267,136.647417 221.215615,133.942211 L225.254912,126.399497 C226.665467,127.64071 228.059972,128.563649 229.438469,129.168342 C230.816967,129.773035 232.179414,130.075377 233.525853,130.075377 C235.064641,130.075377 236.210699,129.725297 236.964064,129.025126 C237.717429,128.324955 238.094105,127.529318 238.094105,126.638191 C238.094105,126.09715 237.997933,125.627724 237.805584,125.229899 C237.613236,124.832075 237.29266,124.466082 236.843847,124.13191 C236.395034,123.797737 235.809983,123.487439 235.088676,123.201005 C234.36737,122.914571 233.4938,122.596317 232.467942,122.246231 C231.249735,121.86432 230.05559,121.442632 228.885471,120.981156 C227.715351,120.519679 226.673479,119.907039 225.759824,119.143216 C224.846169,118.379393 224.108845,117.416672 223.547828,116.255025 C222.986812,115.093378 222.706308,113.621449 222.706308,111.839196 C222.706308,110.056943 223.002841,108.4418 223.595915,106.993719 C224.18899,105.545638 225.022487,104.304444 226.096432,103.270101 C227.170378,102.235757 228.484739,101.432164 230.039555,100.859296 C231.594372,100.286429 233.333496,100 235.25698,100 C237.052232,100 238.927601,100.246647 240.883144,100.73995 C242.838686,101.233252 244.714055,101.957282 246.509307,102.91206 L242.758532,110.21608 Z" id="microCMS" fill="#FFFFFF" fill-rule="nonzero"></path>
            </g>
        </g>
    </g>
</svg>