<?xml version="1.0" encoding="UTF-8"?>
<svg width="274px" height="228px" viewBox="0 0 274 228" version="1.1" xmlns="http://www.w3.org/2000/svg" xmlns:xlink="http://www.w3.org/1999/xlink">
    <!-- Generator: Sketch 57.1 (83088) - https://sketch.com -->
    <title>hatenabookmark-logomark</title>
    <desc>Created with Sketch.</desc>
    <g id="Page-1" stroke="none" stroke-width="1" fill="none" fill-rule="evenodd">
        <g id="hatenabookmark-logomark" fill="#00A4DE" fill-rule="nonzero">
            <g id="Group">
                <path d="M165.2,122.1 C156.133333,111.966667 143.533333,106.3 127.4,105.1 C141.8,101.2 152.2,95.5 158.8,87.8 C165.4,80.1 168.6,70 168.6,57.1 C168.765132,47.6496213 166.492038,38.3161602 162,30 C157.455994,22.1337673 150.806488,15.692058 142.8,11.4 C135.5,7.4 126.8,4.5 116.6,2.8 C106.4,1.1 88.5,0.4 62.9,0.4 L0.6,0.4 L0.6,227.6 L64.8,227.6 C90.6,227.6 109.2,226.733333 120.6,225 C132,223.2 141.5,220.2 149.2,216.1 C158.464241,211.301229 166.088583,203.85096 171.1,194.7 C176.2,185.5 178.8,174.8 178.8,162.6 C178.8,145.7 174.3,132.2 165.2,122.1 Z M58.2,50.7 L71.5,50.7 C86.9,50.7 97.2333333,52.4333333 102.5,55.9 C107.8,59.4 110.4,65.4 110.4,73.9 C110.4,82.4 107.5,87.9 101.9,91.3 C96.3,94.7 85.8,96.3 70.5,96.3 L58.2,96.3 L58.2,50.7 L58.2,50.7 Z M111,181 C104.9,184.7 94.5,186.5 79.9,186.5 L58.2,186.5 L58.2,137 L80.8,137 C95.8,137 106.2,138.9 111.7,142.7 C117.2,146.5 120.1,153.1 120.1,162.7 C120.1,172.3 117.1,177.4 110.9,181.1 L111,181 Z" id="Shape"></path>
                <path d="M244.6,170.1 C228.694199,170.1 215.8,182.994199 215.8,198.9 C215.8,214.805801 228.694199,227.7 244.6,227.7 C260.505801,227.7 273.4,214.805801 273.4,198.9 C273.4,182.994199 260.505801,170.1 244.6,170.1 Z" id="Path"></path>
                <rect id="Rectangle" x="219.6" y="0.4" width="50" height="151.52"></rect>
            </g>
        </g>
    </g>
</svg>