<?xml version="1.0" encoding="UTF-8"?>
<svg width="368px" height="80px" viewBox="0 0 368 80" version="1.1" xmlns="http://www.w3.org/2000/svg" xmlns:xlink="http://www.w3.org/1999/xlink">
    <!-- Generator: Sketch 53.2 (72643) - https://sketchapp.com -->
    <title>Group 2</title>
    <desc>Created with Sketch.</desc>
    <g id="Logo" stroke="none" stroke-width="1" fill="none" fill-rule="evenodd">
        <g id="Artboard" transform="translate(-116.000000, -80.000000)" fill="#2B2C30">
            <g id="Group-2" transform="translate(116.000000, 80.000000)">
                <g id="Group">
                    <path d="M10,5.68434189e-14 C13.3333333,5.68434189e-14 33.3333333,5.68434189e-14 70,5.68434189e-14 C75.5228475,5.57331958e-14 80,4.4771525 80,10 L80,70 C80,75.5228475 75.5228475,80 70,80 L10,80 C4.4771525,80 -2.23575413e-14,75.5228475 -2.34677644e-14,70 C-8.69164433e-14,33.3333333 -8.69164433e-14,13.3333333 -2.34677644e-14,10 C7.16093851e-14,5 5,5.68434189e-14 10,5.68434189e-14 Z M61.2132034,44.2426407 L64.0416306,47.0710678 L69.6984848,41.4142136 L66.8700577,38.5857864 L64.7487373,36.4644661 C62.7961159,34.5118446 59.630291,34.5118446 57.6776695,36.4644661 L38.5857864,55.5563492 L35.7573593,52.7279221 L30.1005051,58.3847763 L32.9289322,61.2132034 L35.0502525,63.3345238 C37.002874,65.2871452 40.1686989,65.2871452 42.1213203,63.3345238 L61.2132034,44.2426407 Z M15.9583694,44.2426407 L18.7867966,47.0710678 L24.4436508,41.4142136 L21.6152237,38.5857864 L38.5857864,21.6152237 L41.4142136,24.4436508 L47.0710678,18.7867966 L44.2426407,15.9583694 L42.1213203,13.8370491 C40.1686989,11.8844276 37.002874,11.8844276 35.0502525,13.8370491 L13.8370491,35.0502525 C11.8844276,37.002874 11.8844276,40.1686989 13.8370491,42.1213203 L15.9583694,44.2426407 Z M55.5563492,27.2720779 L53.4350288,25.1507576 C51.4824074,23.1981361 48.3165825,23.1981361 46.363961,25.1507576 L21.6152237,49.8994949 L27.2720779,55.5563492 L49.8994949,32.9289322 L52.7279221,35.7573593 L58.3847763,30.1005051 L55.5563492,27.2720779 Z" id="Combined-Shape"></path>
                </g>
                <path d="M120,33.5075377 L128.703723,33.5075377 L128.703723,36.5150754 C131.07602,34.2554326 133.7368,33.1256281 136.686143,33.1256281 C140.340763,33.1256281 143.129773,34.6532511 145.053257,37.7085427 C147.0088,34.6214251 149.79781,33.0778894 153.420372,33.0778894 C154.574463,33.0778894 155.664421,33.2449732 156.690279,33.5791457 C157.716137,33.9133183 158.597721,34.4384386 159.335057,35.1545226 C160.072393,35.8706066 160.657444,36.8015018 161.090228,37.9472362 C161.523011,39.0929706 161.7394,40.4773788 161.7394,42.1005025 L161.7394,57.9974874 L153.035677,57.9974874 L153.035677,45.919598 C153.035677,44.6783858 152.947519,43.6599705 152.7712,42.8643216 C152.59488,42.0686727 152.338419,41.4480759 152.00181,41.0025126 C151.6652,40.5569492 151.272494,40.2546072 150.823681,40.0954774 C150.374868,39.9363476 149.894005,39.8567839 149.381075,39.8567839 C146.592023,39.8567839 145.197518,41.8777017 145.197518,45.919598 L145.197518,57.9974874 L136.493795,57.9974874 L136.493795,45.919598 C136.493795,44.6783858 136.413651,43.6520141 136.253361,42.8404523 C136.093071,42.0288904 135.860653,41.3844245 135.556101,40.9070352 C135.25155,40.4296459 134.858844,40.1034347 134.377973,39.928392 C133.897102,39.7533492 133.336094,39.6658291 132.694933,39.6658291 C132.149946,39.6658291 131.637024,39.7453928 131.156153,39.9045226 C130.675282,40.0636524 130.250519,40.3739508 129.881851,40.8354271 C129.513183,41.2969035 129.224665,41.933413 129.016287,42.7449749 C128.80791,43.5565367 128.703723,44.6147338 128.703723,45.919598 L128.703723,57.9974874 L120,57.9974874 L120,33.5075377 Z M176.405895,33.5075377 L176.405895,57.9974874 L167.702172,57.9974874 L167.702172,33.5075377 L176.405895,33.5075377 Z M200.978283,41.4321608 C199.471554,40.4137303 197.948818,39.9045226 196.410031,39.9045226 C195.576521,39.9045226 194.799125,40.0477373 194.077818,40.3341709 C193.356511,40.6206044 192.723374,41.0263793 192.178387,41.5515075 C191.6334,42.0766358 191.208636,42.6972326 190.904085,43.4133166 C190.599533,44.1294006 190.44726,44.9329939 190.44726,45.8241206 C190.44726,46.6834214 190.599533,47.4711019 190.904085,48.1871859 C191.208636,48.9032699 191.625385,49.5238667 192.154343,50.048995 C192.683302,50.5741232 193.316439,50.9798981 194.053775,51.2663317 C194.79111,51.5527653 195.576521,51.6959799 196.410031,51.6959799 C198.044993,51.6959799 199.567728,51.139034 200.978283,50.0251256 L200.978283,57.3768844 C198.830393,58.2998371 196.794736,58.7613065 194.871251,58.7613065 C193.075999,58.7613065 191.368933,58.4589645 189.75,57.8542714 C188.131067,57.2495782 186.704505,56.382334 185.470269,55.2525126 C184.236033,54.1226912 183.250262,52.7701084 182.512927,51.1947236 C181.775591,49.6193389 181.406929,47.8609812 181.406929,45.919598 C181.406929,43.9782147 181.759562,42.2039444 182.46484,40.5967337 C183.170117,38.989523 184.131845,37.6051147 185.350052,36.4434673 C186.568258,35.28182 188.018864,34.3747939 189.701913,33.7223618 C191.384962,33.0699297 193.188201,32.7437186 195.111686,32.7437186 C197.227518,32.7437186 199.183031,33.1892753 200.978283,34.080402 L200.978283,41.4321608 Z M206.93304,33.5075377 L215.636763,33.5075377 L215.636763,37.5175879 C216.566447,36.053594 217.704492,34.9317459 219.050931,34.1520101 C220.39737,33.3722742 221.968192,32.9824121 223.763444,32.9824121 L224.50879,32.9824121 C224.781284,32.9824121 225.093845,33.0142375 225.446484,33.0778894 L225.446484,41.3366834 C224.292393,40.7638162 223.042147,40.4773869 221.695708,40.4773869 C219.67605,40.4773869 218.161329,41.0741146 217.151499,42.2675879 C216.14167,43.4610612 215.636763,45.2035061 215.636763,47.4949749 L215.636763,57.9974874 L206.93304,57.9974874 L206.93304,33.5075377 Z M172.094105,31.1683417 C169.327684,31.1683417 167.085057,28.941952 167.085057,26.1955611 C167.085057,23.4491703 169.327684,21.2227806 172.094105,21.2227806 C174.860527,21.2227806 177.103154,23.4491703 177.103154,26.1955611 C177.103154,28.941952 174.860527,31.1683417 172.094105,31.1683417 Z M236.754912,45.6331658 C236.754912,46.4606407 236.907186,47.2164957 237.211737,47.9007538 C237.516289,48.5850118 237.917009,49.1817395 238.413909,49.6909548 C238.910809,50.2001701 239.503875,50.5979885 240.193123,50.8844221 C240.882372,51.1708557 241.611682,51.3140704 242.381075,51.3140704 C243.150469,51.3140704 243.879779,51.1708557 244.569028,50.8844221 C245.258276,50.5979885 245.851342,50.2001701 246.348242,49.6909548 C246.845142,49.1817395 247.245862,48.5850118 247.550414,47.9007538 C247.854965,47.2164957 248.007239,46.4765534 248.007239,45.6809045 C248.007239,44.9170816 247.854965,44.193052 247.550414,43.508794 C247.245862,42.8245359 246.845142,42.2278082 246.348242,41.718593 C245.851342,41.2093777 245.258276,40.8115592 244.569028,40.5251256 C243.879779,40.238692 243.150469,40.0954774 242.381075,40.0954774 C241.611682,40.0954774 240.882372,40.238692 240.193123,40.5251256 C239.503875,40.8115592 238.910809,41.2093777 238.413909,41.718593 C237.917009,42.2278082 237.516289,42.8165796 237.211737,43.4849246 C236.907186,44.1532697 236.754912,44.8693429 236.754912,45.6331658 Z M227.570321,45.5376884 C227.570321,43.723609 227.938983,42.0289023 228.676319,40.4535176 C229.413654,38.8781328 230.439497,37.5096373 231.753878,36.3479899 C233.068259,35.1863426 234.631066,34.2713601 236.442347,33.6030151 C238.253628,32.93467 240.233185,32.6005025 242.381075,32.6005025 C244.496908,32.6005025 246.460436,32.9267137 248.271717,33.5791457 C250.082998,34.2315778 251.65382,35.1386039 252.98423,36.3002513 C254.31464,37.4618986 255.348497,38.8463069 256.085832,40.4535176 C256.823168,42.0607283 257.19183,43.8349987 257.19183,45.7763819 C257.19183,47.7177652 256.815154,49.4920355 256.061789,51.0992462 C255.308424,52.7064569 254.274567,54.0908652 252.960186,55.2525126 C251.645805,56.4141599 250.066969,57.3132296 248.22363,57.9497487 C246.380291,58.5862678 244.384706,58.9045226 242.236815,58.9045226 C240.120982,58.9045226 238.165469,58.5862678 236.370217,57.9497487 C234.574965,57.3132296 233.028186,56.4062035 231.729835,55.2286432 C230.431483,54.0510829 229.413654,52.6428055 228.676319,51.0037688 C227.938983,49.3647322 227.570321,47.5427236 227.570321,45.5376884 Z M289.12151,34.0326633 C286.941561,31.3911091 284.248723,30.0703518 281.042916,30.0703518 C279.632361,30.0703518 278.326014,30.3249556 277.123837,30.8341709 C275.921659,31.3433861 274.887802,32.0355903 274.022234,32.910804 C273.156666,33.7860178 272.475442,34.8283022 271.978542,36.0376884 C271.481642,37.2470747 271.233195,38.5519193 271.233195,39.9522613 C271.233195,41.3844293 271.481642,42.7051866 271.978542,43.9145729 C272.475442,45.1239591 273.16468,46.1741999 274.046277,47.0653266 C274.927874,47.9564534 275.961731,48.6566139 277.14788,49.1658291 C278.334029,49.6750444 279.616332,49.9296482 280.994829,49.9296482 C284.008288,49.9296482 286.717154,48.6566291 289.12151,46.1105528 L289.12151,57.1859296 L288.159772,57.5201005 C286.717159,58.0293158 285.37074,58.4032651 284.120476,58.6419598 C282.870211,58.8806545 281.635994,59 280.417787,59 C277.917257,59 275.520953,58.5305742 273.2288,57.5917085 C270.936648,56.6528429 268.91702,55.3320856 267.169855,53.629397 C265.42269,51.9267084 264.020171,49.9057906 262.962254,47.5665829 C261.904338,45.2273752 261.375388,42.6733807 261.375388,39.9045226 C261.375388,37.1356645 261.896324,34.5975827 262.938211,32.290201 C263.980098,29.9828193 265.374603,27.9937269 267.121768,26.3228643 C268.868933,24.6520017 270.896576,23.3471571 273.204757,22.4082915 C275.512938,21.4694258 277.933286,21 280.465874,21 C281.908487,21 283.327035,21.151171 284.721562,21.4535176 C286.116088,21.7558642 287.582722,22.2252899 289.12151,22.861809 L289.12151,34.0326633 Z M293.449328,57.9974874 L299.604447,22.0025126 L308.933299,22.0025126 L316.194416,41.1934673 L323.407446,22.0025126 L332.736298,22.0025126 L338.891417,57.9974874 L329.514478,57.9974874 L326.388831,37.2788945 L317.829369,57.9974874 L314.078594,57.9974874 L305.951913,37.2788945 L302.826267,57.9974874 L293.449328,57.9974874 Z M362.758532,31.2160804 C361.732673,30.3886056 360.70683,29.7759651 359.680972,29.3781407 C358.655114,28.9803163 357.661328,28.781407 356.699586,28.781407 C355.48138,28.781407 354.487594,29.0678363 353.718201,29.6407035 C352.948807,30.2135707 352.564116,30.9614694 352.564116,31.8844221 C352.564116,32.5209412 352.756461,33.0460616 353.141158,33.459799 C353.525855,33.8735364 354.030762,34.231573 354.655895,34.5339196 C355.281027,34.8362662 355.986294,35.0988264 356.771717,35.321608 C357.557139,35.5443897 358.334536,35.7830808 359.10393,36.0376884 C362.181505,37.056119 364.43355,38.4166582 365.860134,40.1193467 C367.286719,41.8220353 368,44.0418624 368,46.7788945 C368,48.6247998 367.687438,50.2956374 367.062306,51.7914573 C366.437174,53.2872772 365.523532,54.5682526 364.321355,55.6344221 C363.119177,56.7005916 361.644528,57.528054 359.897363,58.1168342 C358.150198,58.7056143 356.170642,59 353.958635,59 C349.374331,59 345.1267,57.6474172 341.215615,54.9422111 L345.254912,47.3994975 C346.665467,48.6407097 348.059972,49.5636486 349.438469,50.1683417 C350.816967,50.7730348 352.179414,51.0753769 353.525853,51.0753769 C355.064641,51.0753769 356.210699,50.7252966 356.964064,50.0251256 C357.717429,49.3249546 358.094105,48.5293177 358.094105,47.638191 C358.094105,47.0971497 357.997933,46.6277239 357.805584,46.2298995 C357.613236,45.8320751 357.29266,45.4660821 356.843847,45.1319095 C356.395034,44.797737 355.809983,44.4874386 355.088676,44.201005 C354.36737,43.9145714 353.4938,43.5963167 352.467942,43.2462312 C351.249735,42.8643197 350.05559,42.4426321 348.885471,41.9811558 C347.715351,41.5196794 346.673479,40.907039 345.759824,40.1432161 C344.846169,39.3793932 344.108845,38.4166725 343.547828,37.2550251 C342.986812,36.0933778 342.706308,34.6214494 342.706308,32.839196 C342.706308,31.0569425 343.002841,29.4417995 343.595915,27.9937186 C344.18899,26.5456377 345.022487,25.304444 346.096432,24.2701005 C347.170378,23.235757 348.484739,22.4321637 350.039555,21.8592965 C351.594372,21.2864293 353.333496,21 355.25698,21 C357.052232,21 358.927601,21.2466474 360.883144,21.7399497 C362.838686,22.233252 364.714055,22.9572817 366.509307,23.9120603 L362.758532,31.2160804 Z" id="microCMS" fill-rule="nonzero"></path>
            </g>
        </g>
    </g>
</svg>